<?xml version="1.0" encoding="UTF-8" standalone="no"?>
<!DOCTYPE svg PUBLIC "-//W3C//DTD SVG 1.1//EN"
 "http://www.w3.org/Graphics/SVG/1.1/DTD/svg11.dtd">
<!-- Generated by graphviz version 2.38.0 (20140413.2041)
 -->
<!-- Title: models_diagram Pages: 1 -->
<svg width="1516pt" height="205pt"
 viewBox="0.00 0.00 1515.50 205.00" xmlns="http://www.w3.org/2000/svg" xmlns:xlink="http://www.w3.org/1999/xlink">
<g id="graph0" class="graph" transform="scale(1 1) rotate(0) translate(4 201)">
<title>models_diagram</title>
<polygon fill="none" stroke="none" points="-4,4 -4,-201 1511.5,-201 1511.5,4 -4,4"/>
<!-- LevelAssessment -->
<g id="node1" class="node"><title>LevelAssessment</title>
<path fill="none" stroke="black" d="M12,-0.5C12,-0.5 163,-0.5 163,-0.5 169,-0.5 175,-6.5 175,-12.5 175,-12.5 175,-184.5 175,-184.5 175,-190.5 169,-196.5 163,-196.5 163,-196.5 12,-196.5 12,-196.5 6,-196.5 0,-190.5 0,-184.5 0,-184.5 0,-12.5 0,-12.5 0,-6.5 6,-0.5 12,-0.5"/>
<text text-anchor="middle" x="87.5" y="-181.3" font-family="Times,serif" font-size="14.00">LevelAssessment</text>
<polyline fill="none" stroke="black" points="0,-173.5 175,-173.5 "/>
<text text-anchor="start" x="8" y="-158.3" font-family="Times,serif" font-size="14.00">Comments :String</text>
<text text-anchor="start" x="8" y="-143.3" font-family="Times,serif" font-size="14.00">_id :BSON::ObjectId</text>
<text text-anchor="start" x="8" y="-128.3" font-family="Times,serif" font-size="14.00">assessment_result_id :Object</text>
<text text-anchor="start" x="8" y="-113.3" font-family="Times,serif" font-size="14.00">created_at :Time</text>
<text text-anchor="start" x="8" y="-98.3" font-family="Times,serif" font-size="14.00">level_id :Integer</text>
<text text-anchor="start" x="8" y="-83.3" font-family="Times,serif" font-size="14.00">role_id :Integer</text>
<text text-anchor="start" x="8" y="-68.3" font-family="Times,serif" font-size="14.00">track_category_id :Integer</text>
<text text-anchor="start" x="8" y="-53.3" font-family="Times,serif" font-size="14.00">track_id :Integer</text>
<text text-anchor="start" x="8" y="-38.3" font-family="Times,serif" font-size="14.00">updated_at :Time</text>
<text text-anchor="start" x="8" y="-23.3" font-family="Times,serif" font-size="14.00">updated_by :String</text>
<text text-anchor="start" x="8" y="-8.3" font-family="Times,serif" font-size="14.00">user_id :Integer</text>
</g>
<!-- Track -->
<g id="node2" class="node"><title>Track</title>
<path fill="none" stroke="black" d="M205.5,-38C205.5,-38 339.5,-38 339.5,-38 345.5,-38 351.5,-44 351.5,-50 351.5,-50 351.5,-147 351.5,-147 351.5,-153 345.5,-159 339.5,-159 339.5,-159 205.5,-159 205.5,-159 199.5,-159 193.5,-153 193.5,-147 193.5,-147 193.5,-50 193.5,-50 193.5,-44 199.5,-38 205.5,-38"/>
<text text-anchor="middle" x="272.5" y="-143.8" font-family="Times,serif" font-size="14.00">Track</text>
<polyline fill="none" stroke="black" points="193.5,-136 351.5,-136 "/>
<text text-anchor="start" x="201.5" y="-120.8" font-family="Times,serif" font-size="14.00">_id :BSON::ObjectId</text>
<text text-anchor="start" x="201.5" y="-105.8" font-family="Times,serif" font-size="14.00">created_at :Time</text>
<text text-anchor="start" x="201.5" y="-90.8" font-family="Times,serif" font-size="14.00">description :String</text>
<text text-anchor="start" x="201.5" y="-75.8" font-family="Times,serif" font-size="14.00">name :String</text>
<text text-anchor="start" x="201.5" y="-60.8" font-family="Times,serif" font-size="14.00">track_category_id :Object</text>
<text text-anchor="start" x="201.5" y="-45.8" font-family="Times,serif" font-size="14.00">updated_at :Time</text>
</g>
<!-- Upload -->
<g id="node3" class="node"><title>Upload</title>
<path fill="none" stroke="black" d="M381.5,-15.5C381.5,-15.5 515.5,-15.5 515.5,-15.5 521.5,-15.5 527.5,-21.5 527.5,-27.5 527.5,-27.5 527.5,-169.5 527.5,-169.5 527.5,-175.5 521.5,-181.5 515.5,-181.5 515.5,-181.5 381.5,-181.5 381.5,-181.5 375.5,-181.5 369.5,-175.5 369.5,-169.5 369.5,-169.5 369.5,-27.5 369.5,-27.5 369.5,-21.5 375.5,-15.5 381.5,-15.5"/>
<text text-anchor="middle" x="448.5" y="-166.3" font-family="Times,serif" font-size="14.00">Upload</text>
<polyline fill="none" stroke="black" points="369.5,-158.5 527.5,-158.5 "/>
<text text-anchor="start" x="377.5" y="-143.3" font-family="Times,serif" font-size="14.00">_id :BSON::ObjectId</text>
<text text-anchor="start" x="377.5" y="-128.3" font-family="Times,serif" font-size="14.00">created_at :Time</text>
<text text-anchor="start" x="377.5" y="-113.3" font-family="Times,serif" font-size="14.00">csv_report :Object</text>
<text text-anchor="start" x="377.5" y="-98.3" font-family="Times,serif" font-size="14.00">input_file :Object</text>
<text text-anchor="start" x="377.5" y="-83.3" font-family="Times,serif" font-size="14.00">role_id :Object</text>
<text text-anchor="start" x="377.5" y="-68.3" font-family="Times,serif" font-size="14.00">track_category_id :Object</text>
<text text-anchor="start" x="377.5" y="-53.3" font-family="Times,serif" font-size="14.00">track_id :Object</text>
<text text-anchor="start" x="377.5" y="-38.3" font-family="Times,serif" font-size="14.00">type_of_file :String</text>
<text text-anchor="start" x="377.5" y="-23.3" font-family="Times,serif" font-size="14.00">updated_at :Time</text>
</g>
<!-- Cycle -->
<g id="node4" class="node"><title>Cycle</title>
<path fill="none" stroke="black" d="M558,-23C558,-23 713,-23 713,-23 719,-23 725,-29 725,-35 725,-35 725,-162 725,-162 725,-168 719,-174 713,-174 713,-174 558,-174 558,-174 552,-174 546,-168 546,-162 546,-162 546,-35 546,-35 546,-29 552,-23 558,-23"/>
<text text-anchor="middle" x="635.5" y="-158.8" font-family="Times,serif" font-size="14.00">Cycle</text>
<polyline fill="none" stroke="black" points="546,-151 725,-151 "/>
<text text-anchor="start" x="554" y="-135.8" font-family="Times,serif" font-size="14.00">_id :BSON::ObjectId</text>
<text text-anchor="start" x="554" y="-120.8" font-family="Times,serif" font-size="14.00">created_at :Time</text>
<text text-anchor="start" x="554" y="-105.8" font-family="Times,serif" font-size="14.00">emp_duration_end :Date</text>
<text text-anchor="start" x="554" y="-90.8" font-family="Times,serif" font-size="14.00">emp_duration_start :Date</text>
<text text-anchor="start" x="554" y="-75.8" font-family="Times,serif" font-size="14.00">is_open :Mongoid::Boolean</text>
<text text-anchor="start" x="554" y="-60.8" font-family="Times,serif" font-size="14.00">manager_duration_end :Date</text>
<text text-anchor="start" x="554" y="-45.8" font-family="Times,serif" font-size="14.00">manager_duration_start :Date</text>
<text text-anchor="start" x="554" y="-30.8" font-family="Times,serif" font-size="14.00">updated_at :Time</text>
</g>
<!-- AssessmentResult -->
<g id="node5" class="node"><title>AssessmentResult</title>
<path fill="none" stroke="black" d="M755.5,-30.5C755.5,-30.5 863.5,-30.5 863.5,-30.5 869.5,-30.5 875.5,-36.5 875.5,-42.5 875.5,-42.5 875.5,-154.5 875.5,-154.5 875.5,-160.5 869.5,-166.5 863.5,-166.5 863.5,-166.5 755.5,-166.5 755.5,-166.5 749.5,-166.5 743.5,-160.5 743.5,-154.5 743.5,-154.5 743.5,-42.5 743.5,-42.5 743.5,-36.5 749.5,-30.5 755.5,-30.5"/>
<text text-anchor="middle" x="809.5" y="-151.3" font-family="Times,serif" font-size="14.00">AssessmentResult</text>
<polyline fill="none" stroke="black" points="743.5,-143.5 875.5,-143.5 "/>
<text text-anchor="start" x="751.5" y="-128.3" font-family="Times,serif" font-size="14.00">_id :BSON::ObjectId</text>
<text text-anchor="start" x="751.5" y="-113.3" font-family="Times,serif" font-size="14.00">created_at :Time</text>
<text text-anchor="start" x="751.5" y="-98.3" font-family="Times,serif" font-size="14.00">current_level :Float</text>
<text text-anchor="start" x="751.5" y="-83.3" font-family="Times,serif" font-size="14.00">cycle_id :Object</text>
<text text-anchor="start" x="751.5" y="-68.3" font-family="Times,serif" font-size="14.00">total_points :Integer</text>
<text text-anchor="start" x="751.5" y="-53.3" font-family="Times,serif" font-size="14.00">updated_at :Time</text>
<text text-anchor="start" x="751.5" y="-38.3" font-family="Times,serif" font-size="14.00">user_id :Object</text>
</g>
<!-- Level -->
<g id="node6" class="node"><title>Level</title>
<path fill="none" stroke="black" d="M906,-23C906,-23 1045,-23 1045,-23 1051,-23 1057,-29 1057,-35 1057,-35 1057,-162 1057,-162 1057,-168 1051,-174 1045,-174 1045,-174 906,-174 906,-174 900,-174 894,-168 894,-162 894,-162 894,-35 894,-35 894,-29 900,-23 906,-23"/>
<text text-anchor="middle" x="975.5" y="-158.8" font-family="Times,serif" font-size="14.00">Level</text>
<polyline fill="none" stroke="black" points="894,-151 1057,-151 "/>
<text text-anchor="start" x="902" y="-135.8" font-family="Times,serif" font-size="14.00">_id :BSON::ObjectId</text>
<text text-anchor="start" x="902" y="-120.8" font-family="Times,serif" font-size="14.00">created_at :Time</text>
<text text-anchor="start" x="902" y="-105.8" font-family="Times,serif" font-size="14.00">description :String</text>
<text text-anchor="start" x="902" y="-90.8" font-family="Times,serif" font-size="14.00">example_behaviour :Array</text>
<text text-anchor="start" x="902" y="-75.8" font-family="Times,serif" font-size="14.00">example_task :Array</text>
<text text-anchor="start" x="902" y="-60.8" font-family="Times,serif" font-size="14.00">seq_no :Integer</text>
<text text-anchor="start" x="902" y="-45.8" font-family="Times,serif" font-size="14.00">track_id :Object</text>
<text text-anchor="start" x="902" y="-30.8" font-family="Times,serif" font-size="14.00">updated_at :Time</text>
</g>
<!-- Role -->
<g id="node7" class="node"><title>Role</title>
<path fill="none" stroke="black" d="M1087.5,-53C1087.5,-53 1195.5,-53 1195.5,-53 1201.5,-53 1207.5,-59 1207.5,-65 1207.5,-65 1207.5,-132 1207.5,-132 1207.5,-138 1201.5,-144 1195.5,-144 1195.5,-144 1087.5,-144 1087.5,-144 1081.5,-144 1075.5,-138 1075.5,-132 1075.5,-132 1075.5,-65 1075.5,-65 1075.5,-59 1081.5,-53 1087.5,-53"/>
<text text-anchor="middle" x="1141.5" y="-128.8" font-family="Times,serif" font-size="14.00">Role</text>
<polyline fill="none" stroke="black" points="1075.5,-121 1207.5,-121 "/>
<text text-anchor="start" x="1083.5" y="-105.8" font-family="Times,serif" font-size="14.00">_id :BSON::ObjectId</text>
<text text-anchor="start" x="1083.5" y="-90.8" font-family="Times,serif" font-size="14.00">created_at :Time</text>
<text text-anchor="start" x="1083.5" y="-75.8" font-family="Times,serif" font-size="14.00">name :String</text>
<text text-anchor="start" x="1083.5" y="-60.8" font-family="Times,serif" font-size="14.00">updated_at :Time</text>
</g>
<!-- TrackCategory -->
<g id="node8" class="node"><title>TrackCategory</title>
<path fill="none" stroke="black" d="M1237.5,-38C1237.5,-38 1345.5,-38 1345.5,-38 1351.5,-38 1357.5,-44 1357.5,-50 1357.5,-50 1357.5,-147 1357.5,-147 1357.5,-153 1351.5,-159 1345.5,-159 1345.5,-159 1237.5,-159 1237.5,-159 1231.5,-159 1225.5,-153 1225.5,-147 1225.5,-147 1225.5,-50 1225.5,-50 1225.5,-44 1231.5,-38 1237.5,-38"/>
<text text-anchor="middle" x="1291.5" y="-143.8" font-family="Times,serif" font-size="14.00">TrackCategory</text>
<polyline fill="none" stroke="black" points="1225.5,-136 1357.5,-136 "/>
<text text-anchor="start" x="1233.5" y="-120.8" font-family="Times,serif" font-size="14.00">_id :BSON::ObjectId</text>
<text text-anchor="start" x="1233.5" y="-105.8" font-family="Times,serif" font-size="14.00">created_at :Time</text>
<text text-anchor="start" x="1233.5" y="-90.8" font-family="Times,serif" font-size="14.00">description :String</text>
<text text-anchor="start" x="1233.5" y="-75.8" font-family="Times,serif" font-size="14.00">name :String</text>
<text text-anchor="start" x="1233.5" y="-60.8" font-family="Times,serif" font-size="14.00">role_id :Object</text>
<text text-anchor="start" x="1233.5" y="-45.8" font-family="Times,serif" font-size="14.00">updated_at :Time</text>
</g>
<!-- User -->
<g id="node9" class="node"><title>User</title>
<path fill="none" stroke="black" d="M1387.5,-38C1387.5,-38 1495.5,-38 1495.5,-38 1501.5,-38 1507.5,-44 1507.5,-50 1507.5,-50 1507.5,-147 1507.5,-147 1507.5,-153 1501.5,-159 1495.5,-159 1495.5,-159 1387.5,-159 1387.5,-159 1381.5,-159 1375.5,-153 1375.5,-147 1375.5,-147 1375.5,-50 1375.5,-50 1375.5,-44 1381.5,-38 1387.5,-38"/>
<text text-anchor="middle" x="1441.5" y="-143.8" font-family="Times,serif" font-size="14.00">User</text>
<polyline fill="none" stroke="black" points="1375.5,-136 1507.5,-136 "/>
<text text-anchor="start" x="1383.5" y="-120.8" font-family="Times,serif" font-size="14.00">_id :BSON::ObjectId</text>
<text text-anchor="start" x="1383.5" y="-105.8" font-family="Times,serif" font-size="14.00">created_at :Time</text>
<text text-anchor="start" x="1383.5" y="-90.8" font-family="Times,serif" font-size="14.00">email :String</text>
<text text-anchor="start" x="1383.5" y="-75.8" font-family="Times,serif" font-size="14.00">password :String</text>
<text text-anchor="start" x="1383.5" y="-60.8" font-family="Times,serif" font-size="14.00">role :String</text>
<text text-anchor="start" x="1383.5" y="-45.8" font-family="Times,serif" font-size="14.00">updated_at :Time</text>
</g>
</g>
</svg>
