<?xml version="1.0" encoding="UTF-8" standalone="no"?>
<!DOCTYPE svg PUBLIC "-//W3C//DTD SVG 1.1//EN"
 "http://www.w3.org/Graphics/SVG/1.1/DTD/svg11.dtd">
<!-- Generated by graphviz version 2.38.0 (20140413.2041)
 -->
<!-- Title: controllers_diagram Pages: 1 -->
<svg width="820pt" height="782pt"
 viewBox="0.00 0.00 820.18 782.25" xmlns="http://www.w3.org/2000/svg" xmlns:xlink="http://www.w3.org/1999/xlink">
<g id="graph0" class="graph" transform="scale(1 1) rotate(0) translate(274.18 372.801)">
<title>controllers_diagram</title>
<polygon fill="none" stroke="none" points="-274.18,409.451 -274.18,-372.801 546,-372.801 546,409.451 -274.18,409.451"/>
<!-- _diagram_info -->
<g id="node1" class="node"><title>_diagram_info</title>
<text text-anchor="start" x="368" y="-49.6" font-family="Times,serif" font-size="13.00">Controllers diagram</text>
<text text-anchor="start" x="368" y="-35.6" font-family="Times,serif" font-size="13.00">Date: Apr 05 2019 &#45; 19:58</text>
<text text-anchor="start" x="368" y="-21.6" font-family="Times,serif" font-size="13.00">Generated by RailRoady 1.5.3</text>
<text text-anchor="start" x="368" y="-7.6" font-family="Times,serif" font-size="13.00">http://railroady.prestonlee.com</text>
</g>
<!-- RolesController -->
<g id="node2" class="node"><title>RolesController</title>
<path fill="none" stroke="black" d="M-228.845,25.6538C-228.845,25.6538 -149.845,25.6538 -149.845,25.6538 -143.845,25.6538 -137.845,19.6538 -137.845,13.6538 -137.845,13.6538 -137.845,-130.346 -137.845,-130.346 -137.845,-136.346 -143.845,-142.346 -149.845,-142.346 -149.845,-142.346 -228.845,-142.346 -228.845,-142.346 -234.845,-142.346 -240.845,-136.346 -240.845,-130.346 -240.845,-130.346 -240.845,13.6538 -240.845,13.6538 -240.845,19.6538 -234.845,25.6538 -228.845,25.6538"/>
<text text-anchor="middle" x="-189.345" y="-127.146" font-family="Times,serif" font-size="14.00">RolesController</text>
<polyline fill="none" stroke="black" points="-240.845,-119.346 -137.845,-119.346 "/>
<text text-anchor="start" x="-232.845" y="-104.146" font-family="Times,serif" font-size="14.00">destroy</text>
<text text-anchor="start" x="-232.845" y="-89.1462" font-family="Times,serif" font-size="14.00">edit</text>
<text text-anchor="start" x="-232.845" y="-74.1462" font-family="Times,serif" font-size="14.00">index</text>
<text text-anchor="start" x="-232.845" y="-59.1462" font-family="Times,serif" font-size="14.00">show</text>
<text text-anchor="start" x="-232.845" y="-44.1462" font-family="Times,serif" font-size="14.00">update</text>
<polyline fill="none" stroke="black" points="-240.845,-36.3462 -137.845,-36.3462 "/>
<polyline fill="none" stroke="black" points="-240.845,-12.3462 -137.845,-12.3462 "/>
<text text-anchor="start" x="-232.845" y="2.8538" font-family="Times,serif" font-size="14.00">_layout</text>
<text text-anchor="start" x="-232.845" y="17.8538" font-family="Times,serif" font-size="14.00">role_params</text>
</g>
<!-- UsersController -->
<g id="node3" class="node"><title>UsersController</title>
<path fill="none" stroke="black" d="M195.748,64.2317C195.748,64.2317 274.748,64.2317 274.748,64.2317 280.748,64.2317 286.748,58.2317 286.748,52.2317 286.748,52.2317 286.748,-16.7683 286.748,-16.7683 286.748,-22.7683 280.748,-28.7683 274.748,-28.7683 274.748,-28.7683 195.748,-28.7683 195.748,-28.7683 189.748,-28.7683 183.748,-22.7683 183.748,-16.7683 183.748,-16.7683 183.748,52.2317 183.748,52.2317 183.748,58.2317 189.748,64.2317 195.748,64.2317"/>
<text text-anchor="middle" x="235.248" y="-13.5683" font-family="Times,serif" font-size="14.00">UsersController</text>
<polyline fill="none" stroke="black" points="183.748,-5.76829 286.748,-5.76829 "/>
<text text-anchor="start" x="191.748" y="9.43171" font-family="Times,serif" font-size="14.00">new</text>
<polyline fill="none" stroke="black" points="183.748,17.2317 286.748,17.2317 "/>
<polyline fill="none" stroke="black" points="183.748,41.2317 286.748,41.2317 "/>
<text text-anchor="start" x="191.748" y="56.4317" font-family="Times,serif" font-size="14.00">_layout</text>
</g>
<!-- TrackCategoriesController -->
<g id="node4" class="node"><title>TrackCategoriesController</title>
<path fill="none" stroke="black" d="M-36.3117,404.951C-36.3117,404.951 100.688,404.951 100.688,404.951 106.688,404.951 112.688,398.951 112.688,392.951 112.688,392.951 112.688,263.951 112.688,263.951 112.688,257.951 106.688,251.951 100.688,251.951 100.688,251.951 -36.3117,251.951 -36.3117,251.951 -42.3117,251.951 -48.3117,257.951 -48.3117,263.951 -48.3117,263.951 -48.3117,392.951 -48.3117,392.951 -48.3117,398.951 -42.3117,404.951 -36.3117,404.951"/>
<text text-anchor="middle" x="32.1883" y="267.151" font-family="Times,serif" font-size="14.00">TrackCategoriesController</text>
<polyline fill="none" stroke="black" points="-48.3117,274.951 112.688,274.951 "/>
<text text-anchor="start" x="-40.3117" y="290.151" font-family="Times,serif" font-size="14.00">destroy</text>
<text text-anchor="start" x="-40.3117" y="305.151" font-family="Times,serif" font-size="14.00">edit</text>
<text text-anchor="start" x="-40.3117" y="320.151" font-family="Times,serif" font-size="14.00">index</text>
<text text-anchor="start" x="-40.3117" y="335.151" font-family="Times,serif" font-size="14.00">update</text>
<polyline fill="none" stroke="black" points="-48.3117,342.951 112.688,342.951 "/>
<polyline fill="none" stroke="black" points="-48.3117,366.951 112.688,366.951 "/>
<text text-anchor="start" x="-40.3117" y="382.151" font-family="Times,serif" font-size="14.00">_layout</text>
<text text-anchor="start" x="-40.3117" y="397.151" font-family="Times,serif" font-size="14.00">track_category_params</text>
</g>
<!-- UploadsController -->
<g id="node5" class="node"><title>UploadsController</title>
<path fill="none" stroke="black" d="M-189.427,-155.301C-189.427,-155.301 -85.4269,-155.301 -85.4269,-155.301 -79.4269,-155.301 -73.4269,-161.301 -73.4269,-167.301 -73.4269,-167.301 -73.4269,-356.301 -73.4269,-356.301 -73.4269,-362.301 -79.4269,-368.301 -85.4269,-368.301 -85.4269,-368.301 -189.427,-368.301 -189.427,-368.301 -195.427,-368.301 -201.427,-362.301 -201.427,-356.301 -201.427,-356.301 -201.427,-167.301 -201.427,-167.301 -201.427,-161.301 -195.427,-155.301 -189.427,-155.301"/>
<text text-anchor="middle" x="-137.427" y="-353.101" font-family="Times,serif" font-size="14.00">UploadsController</text>
<polyline fill="none" stroke="black" points="-201.427,-345.301 -73.4269,-345.301 "/>
<text text-anchor="start" x="-193.427" y="-330.101" font-family="Times,serif" font-size="14.00">create</text>
<text text-anchor="start" x="-193.427" y="-315.101" font-family="Times,serif" font-size="14.00">destroy</text>
<text text-anchor="start" x="-193.427" y="-300.101" font-family="Times,serif" font-size="14.00">get_roles</text>
<text text-anchor="start" x="-193.427" y="-285.101" font-family="Times,serif" font-size="14.00">get_track_categories</text>
<text text-anchor="start" x="-193.427" y="-270.101" font-family="Times,serif" font-size="14.00">get_tracks</text>
<text text-anchor="start" x="-193.427" y="-255.101" font-family="Times,serif" font-size="14.00">index</text>
<text text-anchor="start" x="-193.427" y="-240.101" font-family="Times,serif" font-size="14.00">new</text>
<text text-anchor="start" x="-193.427" y="-225.101" font-family="Times,serif" font-size="14.00">show</text>
<polyline fill="none" stroke="black" points="-201.427,-217.301 -73.4269,-217.301 "/>
<polyline fill="none" stroke="black" points="-201.427,-193.301 -73.4269,-193.301 "/>
<text text-anchor="start" x="-193.427" y="-178.101" font-family="Times,serif" font-size="14.00">_layout</text>
<text text-anchor="start" x="-193.427" y="-163.101" font-family="Times,serif" font-size="14.00">upload_params</text>
</g>
<!-- Api::V1::UsersController -->
<g id="node6" class="node"><title>Api::V1::UsersController</title>
<path fill="none" stroke="black" d="M130.583,-181.381C130.583,-181.381 261.583,-181.381 261.583,-181.381 267.583,-181.381 273.583,-187.381 273.583,-193.381 273.583,-193.381 273.583,-292.381 273.583,-292.381 273.583,-298.381 267.583,-304.381 261.583,-304.381 261.583,-304.381 130.583,-304.381 130.583,-304.381 124.583,-304.381 118.583,-298.381 118.583,-292.381 118.583,-292.381 118.583,-193.381 118.583,-193.381 118.583,-187.381 124.583,-181.381 130.583,-181.381"/>
<text text-anchor="middle" x="196.083" y="-289.181" font-family="Times,serif" font-size="14.00">Api::V1::UsersController</text>
<polyline fill="none" stroke="black" points="118.583,-281.381 273.583,-281.381 "/>
<text text-anchor="start" x="126.583" y="-266.181" font-family="Times,serif" font-size="14.00">get_static_data</text>
<text text-anchor="start" x="126.583" y="-251.181" font-family="Times,serif" font-size="14.00">index</text>
<text text-anchor="start" x="126.583" y="-236.181" font-family="Times,serif" font-size="14.00">start_assessment</text>
<polyline fill="none" stroke="black" points="118.583,-228.381 273.583,-228.381 "/>
<polyline fill="none" stroke="black" points="118.583,-204.381 273.583,-204.381 "/>
<text text-anchor="start" x="126.583" y="-189.181" font-family="Times,serif" font-size="14.00">_layout</text>
</g>
<!-- Api::V1::ApiController -->
<g id="node7" class="node"><title>Api::V1::ApiController</title>
<path fill="none" stroke="black" d="M-30.3517,-50.0749C-30.3517,-50.0749 89.6483,-50.0749 89.6483,-50.0749 95.6483,-50.0749 101.648,-56.0749 101.648,-62.0749 101.648,-62.0749 101.648,-132.075 101.648,-132.075 101.648,-138.075 95.6483,-144.075 89.6483,-144.075 89.6483,-144.075 -30.3517,-144.075 -30.3517,-144.075 -36.3517,-144.075 -42.3517,-138.075 -42.3517,-132.075 -42.3517,-132.075 -42.3517,-62.0749 -42.3517,-62.0749 -42.3517,-56.0749 -36.3517,-50.0749 -30.3517,-50.0749"/>
<text text-anchor="middle" x="29.6483" y="-128.875" font-family="Times,serif" font-size="14.00">Api::V1::ApiController</text>
<polyline fill="none" stroke="black" points="-42.3517,-121.075 101.648,-121.075 "/>
<polyline fill="none" stroke="black" points="-42.3517,-97.0749 101.648,-97.0749 "/>
<polyline fill="none" stroke="black" points="-42.3517,-73.0749 101.648,-73.0749 "/>
<text text-anchor="start" x="-34.3517" y="-57.8749" font-family="Times,serif" font-size="14.00">_layout</text>
</g>
<!-- Api::V1::ApiController&#45;&gt;Api::V1::UsersController -->
<g id="edge5" class="edge"><title>Api::V1::ApiController&#45;&gt;Api::V1::UsersController</title>
<path fill="none" stroke="black" d="M83.6848,-144.414C97.0681,-156.139 111.604,-168.873 125.644,-181.172"/>
</g>
<!-- AssessmentResultsController -->
<g id="node8" class="node"><title>AssessmentResultsController</title>
<path fill="none" stroke="black" d="M-258.18,376.229C-258.18,376.229 -106.18,376.229 -106.18,376.229 -100.18,376.229 -94.1802,370.229 -94.1802,364.229 -94.1802,364.229 -94.1802,295.229 -94.1802,295.229 -94.1802,289.229 -100.18,283.229 -106.18,283.229 -106.18,283.229 -258.18,283.229 -258.18,283.229 -264.18,283.229 -270.18,289.229 -270.18,295.229 -270.18,295.229 -270.18,364.229 -270.18,364.229 -270.18,370.229 -264.18,376.229 -258.18,376.229"/>
<text text-anchor="middle" x="-182.18" y="298.429" font-family="Times,serif" font-size="14.00">AssessmentResultsController</text>
<polyline fill="none" stroke="black" points="-270.18,306.229 -94.1802,306.229 "/>
<text text-anchor="start" x="-262.18" y="321.429" font-family="Times,serif" font-size="14.00">index</text>
<polyline fill="none" stroke="black" points="-270.18,329.229 -94.1802,329.229 "/>
<polyline fill="none" stroke="black" points="-270.18,353.229 -94.1802,353.229 "/>
<text text-anchor="start" x="-262.18" y="368.429" font-family="Times,serif" font-size="14.00">_layout</text>
</g>
<!-- TracksController -->
<g id="node9" class="node"><title>TracksController</title>
<path fill="none" stroke="black" d="M191.508,368.36C191.508,368.36 276.508,368.36 276.508,368.36 282.508,368.36 288.508,362.36 288.508,356.36 288.508,356.36 288.508,227.36 288.508,227.36 288.508,221.36 282.508,215.36 276.508,215.36 276.508,215.36 191.508,215.36 191.508,215.36 185.508,215.36 179.508,221.36 179.508,227.36 179.508,227.36 179.508,356.36 179.508,356.36 179.508,362.36 185.508,368.36 191.508,368.36"/>
<text text-anchor="middle" x="234.008" y="230.56" font-family="Times,serif" font-size="14.00">TracksController</text>
<polyline fill="none" stroke="black" points="179.508,238.36 288.508,238.36 "/>
<text text-anchor="start" x="187.508" y="253.56" font-family="Times,serif" font-size="14.00">destroy</text>
<text text-anchor="start" x="187.508" y="268.56" font-family="Times,serif" font-size="14.00">edit</text>
<text text-anchor="start" x="187.508" y="283.56" font-family="Times,serif" font-size="14.00">index</text>
<text text-anchor="start" x="187.508" y="298.56" font-family="Times,serif" font-size="14.00">update</text>
<polyline fill="none" stroke="black" points="179.508,306.36 288.508,306.36 "/>
<polyline fill="none" stroke="black" points="179.508,330.36 288.508,330.36 "/>
<text text-anchor="start" x="187.508" y="345.56" font-family="Times,serif" font-size="14.00">_layout</text>
<text text-anchor="start" x="187.508" y="360.56" font-family="Times,serif" font-size="14.00">track_params</text>
</g>
<!-- LevelsController -->
<g id="node10" class="node"><title>LevelsController</title>
<path fill="none" stroke="black" d="M-220.76,205.036C-220.76,205.036 -136.76,205.036 -136.76,205.036 -130.76,205.036 -124.76,199.036 -124.76,193.036 -124.76,193.036 -124.76,64.0364 -124.76,64.0364 -124.76,58.0364 -130.76,52.0364 -136.76,52.0364 -136.76,52.0364 -220.76,52.0364 -220.76,52.0364 -226.76,52.0364 -232.76,58.0364 -232.76,64.0364 -232.76,64.0364 -232.76,193.036 -232.76,193.036 -232.76,199.036 -226.76,205.036 -220.76,205.036"/>
<text text-anchor="middle" x="-178.76" y="67.2364" font-family="Times,serif" font-size="14.00">LevelsController</text>
<polyline fill="none" stroke="black" points="-232.76,75.0364 -124.76,75.0364 "/>
<text text-anchor="start" x="-224.76" y="90.2364" font-family="Times,serif" font-size="14.00">destroy</text>
<text text-anchor="start" x="-224.76" y="105.236" font-family="Times,serif" font-size="14.00">edit</text>
<text text-anchor="start" x="-224.76" y="120.236" font-family="Times,serif" font-size="14.00">index</text>
<text text-anchor="start" x="-224.76" y="135.236" font-family="Times,serif" font-size="14.00">update</text>
<polyline fill="none" stroke="black" points="-232.76,143.036 -124.76,143.036 "/>
<polyline fill="none" stroke="black" points="-232.76,167.036 -124.76,167.036 "/>
<text text-anchor="start" x="-224.76" y="182.236" font-family="Times,serif" font-size="14.00">_layout</text>
<text text-anchor="start" x="-224.76" y="197.236" font-family="Times,serif" font-size="14.00">level_params</text>
</g>
<!-- ApplicationController -->
<g id="node11" class="node"><title>ApplicationController</title>
<path fill="none" stroke="black" d="M-18.6987,156.643C-18.6987,156.643 93.3013,156.643 93.3013,156.643 99.3013,156.643 105.301,150.643 105.301,144.643 105.301,144.643 105.301,74.643 105.301,74.643 105.301,68.643 99.3013,62.643 93.3013,62.643 93.3013,62.643 -18.6987,62.643 -18.6987,62.643 -24.6987,62.643 -30.6987,68.643 -30.6987,74.643 -30.6987,74.643 -30.6987,144.643 -30.6987,144.643 -30.6987,150.643 -24.6987,156.643 -18.6987,156.643"/>
<text text-anchor="middle" x="37.3013" y="77.843" font-family="Times,serif" font-size="14.00">ApplicationController</text>
<polyline fill="none" stroke="black" points="-30.6987,85.643 105.301,85.643 "/>
<polyline fill="none" stroke="black" points="-30.6987,109.643 105.301,109.643 "/>
<polyline fill="none" stroke="black" points="-30.6987,133.643 105.301,133.643 "/>
<text text-anchor="start" x="-22.6987" y="148.843" font-family="Times,serif" font-size="14.00">_layout</text>
</g>
<!-- ApplicationController&#45;&gt;RolesController -->
<g id="edge1" class="edge"><title>ApplicationController&#45;&gt;RolesController</title>
<path fill="none" stroke="black" d="M-26.1338,62.6253C-61.3613,36.5149 -104.625,4.44839 -137.756,-20.1082"/>
</g>
<!-- ApplicationController&#45;&gt;UsersController -->
<g id="edge2" class="edge"><title>ApplicationController&#45;&gt;UsersController</title>
<path fill="none" stroke="black" d="M105.423,78.0124C131.033,66.1211 159.705,52.808 183.577,41.7237"/>
</g>
<!-- ApplicationController&#45;&gt;TrackCategoriesController -->
<g id="edge3" class="edge"><title>ApplicationController&#45;&gt;TrackCategoriesController</title>
<path fill="none" stroke="black" d="M36.1982,156.852C35.5523,184.491 34.7212,220.06 33.9832,251.642"/>
</g>
<!-- ApplicationController&#45;&gt;UploadsController -->
<g id="edge4" class="edge"><title>ApplicationController&#45;&gt;UploadsController</title>
<path fill="none" stroke="black" d="M11.067,62.5583C-5.77015,31.7527 -27.7358,-9.55673 -45.5517,-46.8749 -62.2041,-81.756 -79.1836,-120.434 -93.9416,-155.255"/>
</g>
<!-- ApplicationController&#45;&gt;Api::V1::ApiController -->
<g id="edge6" class="edge"><title>ApplicationController&#45;&gt;Api::V1::ApiController</title>
<path fill="none" stroke="black" d="M35.5552,62.4769C34.3111,28.8733 32.6456,-16.1155 31.4002,-49.754"/>
</g>
<!-- ApplicationController&#45;&gt;AssessmentResultsController -->
<g id="edge7" class="edge"><title>ApplicationController&#45;&gt;AssessmentResultsController</title>
<path fill="none" stroke="black" d="M-9.78296,156.857C-46.9408,194.117 -98.5114,245.83 -135.551,282.972"/>
</g>
<!-- ApplicationController&#45;&gt;TracksController -->
<g id="edge8" class="edge"><title>ApplicationController&#45;&gt;TracksController</title>
<path fill="none" stroke="black" d="M88.2141,156.805C116.104,182.64 150.686,214.675 179.169,241.06"/>
</g>
<!-- ApplicationController&#45;&gt;LevelsController -->
<g id="edge9" class="edge"><title>ApplicationController&#45;&gt;LevelsController</title>
<path fill="none" stroke="black" d="M-30.7653,115.595C-61.0706,118.245 -96.2603,121.322 -124.721,123.811"/>
</g>
<!-- Apitome::DocsController -->
<g id="node12" class="node"><title>Apitome::DocsController</title>
<path fill="none" stroke="black" d="M372.5,359.5C372.5,359.5 503.5,359.5 503.5,359.5 509.5,359.5 515.5,353.5 515.5,347.5 515.5,347.5 515.5,98.5 515.5,98.5 515.5,92.5 509.5,86.5 503.5,86.5 503.5,86.5 372.5,86.5 372.5,86.5 366.5,86.5 360.5,92.5 360.5,98.5 360.5,98.5 360.5,347.5 360.5,347.5 360.5,353.5 366.5,359.5 372.5,359.5"/>
<text text-anchor="middle" x="438" y="101.7" font-family="Times,serif" font-size="14.00">Apitome::DocsController</text>
<polyline fill="none" stroke="black" points="360.5,109.5 515.5,109.5 "/>
<text text-anchor="start" x="368.5" y="124.7" font-family="Times,serif" font-size="14.00">index</text>
<text text-anchor="start" x="368.5" y="139.7" font-family="Times,serif" font-size="14.00">show</text>
<text text-anchor="start" x="368.5" y="154.7" font-family="Times,serif" font-size="14.00">simulate</text>
<polyline fill="none" stroke="black" points="360.5,162.5 515.5,162.5 "/>
<polyline fill="none" stroke="black" points="360.5,186.5 515.5,186.5 "/>
<text text-anchor="start" x="368.5" y="201.7" font-family="Times,serif" font-size="14.00">_layout</text>
<text text-anchor="start" x="368.5" y="216.7" font-family="Times,serif" font-size="14.00">example</text>
<text text-anchor="start" x="368.5" y="231.7" font-family="Times,serif" font-size="14.00">file_for</text>
<text text-anchor="start" x="368.5" y="246.7" font-family="Times,serif" font-size="14.00">formatted_body</text>
<text text-anchor="start" x="368.5" y="261.7" font-family="Times,serif" font-size="14.00">formatted_readme</text>
<text text-anchor="start" x="368.5" y="276.7" font-family="Times,serif" font-size="14.00">id_for</text>
<text text-anchor="start" x="368.5" y="291.7" font-family="Times,serif" font-size="14.00">param_extras</text>
<text text-anchor="start" x="368.5" y="306.7" font-family="Times,serif" font-size="14.00">param_headers</text>
<text text-anchor="start" x="368.5" y="321.7" font-family="Times,serif" font-size="14.00">rendered_markdown</text>
<text text-anchor="start" x="368.5" y="336.7" font-family="Times,serif" font-size="14.00">resources</text>
<text text-anchor="start" x="368.5" y="351.7" font-family="Times,serif" font-size="14.00">set_example</text>
</g>
</g>
</svg>
