<?xml version="1.0" encoding="UTF-8" standalone="no"?>
<!DOCTYPE svg PUBLIC "-//W3C//DTD SVG 1.1//EN"
 "http://www.w3.org/Graphics/SVG/1.1/DTD/svg11.dtd">
<!-- Generated by graphviz version 2.38.0 (20140413.2041)
 -->
<!-- Title: models_diagram Pages: 1 -->
<svg width="1716pt" height="205pt"
 viewBox="0.00 0.00 1716.00 205.00" xmlns="http://www.w3.org/2000/svg" xmlns:xlink="http://www.w3.org/1999/xlink">
<g id="graph0" class="graph" transform="scale(1 1) rotate(0) translate(4 201)">
<title>models_diagram</title>
<polygon fill="none" stroke="none" points="-4,4 -4,-201 1712,-201 1712,4 -4,4"/>
<!-- _diagram_info -->
<g id="node1" class="node"><title>_diagram_info</title>
<text text-anchor="start" x="8" y="-116.1" font-family="Times,serif" font-size="13.00">Models diagram</text>
<text text-anchor="start" x="8" y="-102.1" font-family="Times,serif" font-size="13.00">Date: Apr 05 2019 &#45; 19:58</text>
<text text-anchor="start" x="8" y="-88.1" font-family="Times,serif" font-size="13.00">Generated by RailRoady 1.5.3</text>
<text text-anchor="start" x="8" y="-74.1" font-family="Times,serif" font-size="13.00">http://railroady.prestonlee.com</text>
</g>
<!-- LevelAssessment -->
<g id="node2" class="node"><title>LevelAssessment</title>
<path fill="none" stroke="black" d="M212.5,-0.5C212.5,-0.5 363.5,-0.5 363.5,-0.5 369.5,-0.5 375.5,-6.5 375.5,-12.5 375.5,-12.5 375.5,-184.5 375.5,-184.5 375.5,-190.5 369.5,-196.5 363.5,-196.5 363.5,-196.5 212.5,-196.5 212.5,-196.5 206.5,-196.5 200.5,-190.5 200.5,-184.5 200.5,-184.5 200.5,-12.5 200.5,-12.5 200.5,-6.5 206.5,-0.5 212.5,-0.5"/>
<text text-anchor="middle" x="288" y="-181.3" font-family="Times,serif" font-size="14.00">LevelAssessment</text>
<polyline fill="none" stroke="black" points="200.5,-173.5 375.5,-173.5 "/>
<text text-anchor="start" x="208.5" y="-158.3" font-family="Times,serif" font-size="14.00">Comments :String</text>
<text text-anchor="start" x="208.5" y="-143.3" font-family="Times,serif" font-size="14.00">_id :BSON::ObjectId</text>
<text text-anchor="start" x="208.5" y="-128.3" font-family="Times,serif" font-size="14.00">assessment_result_id :Object</text>
<text text-anchor="start" x="208.5" y="-113.3" font-family="Times,serif" font-size="14.00">created_at :Time</text>
<text text-anchor="start" x="208.5" y="-98.3" font-family="Times,serif" font-size="14.00">level_id :Integer</text>
<text text-anchor="start" x="208.5" y="-83.3" font-family="Times,serif" font-size="14.00">role_id :Integer</text>
<text text-anchor="start" x="208.5" y="-68.3" font-family="Times,serif" font-size="14.00">track_category_id :Integer</text>
<text text-anchor="start" x="208.5" y="-53.3" font-family="Times,serif" font-size="14.00">track_id :Integer</text>
<text text-anchor="start" x="208.5" y="-38.3" font-family="Times,serif" font-size="14.00">updated_at :Time</text>
<text text-anchor="start" x="208.5" y="-23.3" font-family="Times,serif" font-size="14.00">updated_by :String</text>
<text text-anchor="start" x="208.5" y="-8.3" font-family="Times,serif" font-size="14.00">user_id :Integer</text>
</g>
<!-- Track -->
<g id="node3" class="node"><title>Track</title>
<path fill="none" stroke="black" d="M406,-38C406,-38 540,-38 540,-38 546,-38 552,-44 552,-50 552,-50 552,-147 552,-147 552,-153 546,-159 540,-159 540,-159 406,-159 406,-159 400,-159 394,-153 394,-147 394,-147 394,-50 394,-50 394,-44 400,-38 406,-38"/>
<text text-anchor="middle" x="473" y="-143.8" font-family="Times,serif" font-size="14.00">Track</text>
<polyline fill="none" stroke="black" points="394,-136 552,-136 "/>
<text text-anchor="start" x="402" y="-120.8" font-family="Times,serif" font-size="14.00">_id :BSON::ObjectId</text>
<text text-anchor="start" x="402" y="-105.8" font-family="Times,serif" font-size="14.00">created_at :Time</text>
<text text-anchor="start" x="402" y="-90.8" font-family="Times,serif" font-size="14.00">description :String</text>
<text text-anchor="start" x="402" y="-75.8" font-family="Times,serif" font-size="14.00">name :String</text>
<text text-anchor="start" x="402" y="-60.8" font-family="Times,serif" font-size="14.00">track_category_id :Object</text>
<text text-anchor="start" x="402" y="-45.8" font-family="Times,serif" font-size="14.00">updated_at :Time</text>
</g>
<!-- Upload -->
<g id="node4" class="node"><title>Upload</title>
<path fill="none" stroke="black" d="M582,-15.5C582,-15.5 716,-15.5 716,-15.5 722,-15.5 728,-21.5 728,-27.5 728,-27.5 728,-169.5 728,-169.5 728,-175.5 722,-181.5 716,-181.5 716,-181.5 582,-181.5 582,-181.5 576,-181.5 570,-175.5 570,-169.5 570,-169.5 570,-27.5 570,-27.5 570,-21.5 576,-15.5 582,-15.5"/>
<text text-anchor="middle" x="649" y="-166.3" font-family="Times,serif" font-size="14.00">Upload</text>
<polyline fill="none" stroke="black" points="570,-158.5 728,-158.5 "/>
<text text-anchor="start" x="578" y="-143.3" font-family="Times,serif" font-size="14.00">_id :BSON::ObjectId</text>
<text text-anchor="start" x="578" y="-128.3" font-family="Times,serif" font-size="14.00">created_at :Time</text>
<text text-anchor="start" x="578" y="-113.3" font-family="Times,serif" font-size="14.00">csv_report :Object</text>
<text text-anchor="start" x="578" y="-98.3" font-family="Times,serif" font-size="14.00">input_file :Object</text>
<text text-anchor="start" x="578" y="-83.3" font-family="Times,serif" font-size="14.00">role_id :Object</text>
<text text-anchor="start" x="578" y="-68.3" font-family="Times,serif" font-size="14.00">track_category_id :Object</text>
<text text-anchor="start" x="578" y="-53.3" font-family="Times,serif" font-size="14.00">track_id :Object</text>
<text text-anchor="start" x="578" y="-38.3" font-family="Times,serif" font-size="14.00">type_of_file :String</text>
<text text-anchor="start" x="578" y="-23.3" font-family="Times,serif" font-size="14.00">updated_at :Time</text>
</g>
<!-- Cycle -->
<g id="node5" class="node"><title>Cycle</title>
<path fill="none" stroke="black" d="M758.5,-23C758.5,-23 913.5,-23 913.5,-23 919.5,-23 925.5,-29 925.5,-35 925.5,-35 925.5,-162 925.5,-162 925.5,-168 919.5,-174 913.5,-174 913.5,-174 758.5,-174 758.5,-174 752.5,-174 746.5,-168 746.5,-162 746.5,-162 746.5,-35 746.5,-35 746.5,-29 752.5,-23 758.5,-23"/>
<text text-anchor="middle" x="836" y="-158.8" font-family="Times,serif" font-size="14.00">Cycle</text>
<polyline fill="none" stroke="black" points="746.5,-151 925.5,-151 "/>
<text text-anchor="start" x="754.5" y="-135.8" font-family="Times,serif" font-size="14.00">_id :BSON::ObjectId</text>
<text text-anchor="start" x="754.5" y="-120.8" font-family="Times,serif" font-size="14.00">created_at :Time</text>
<text text-anchor="start" x="754.5" y="-105.8" font-family="Times,serif" font-size="14.00">emp_duration_end :Date</text>
<text text-anchor="start" x="754.5" y="-90.8" font-family="Times,serif" font-size="14.00">emp_duration_start :Date</text>
<text text-anchor="start" x="754.5" y="-75.8" font-family="Times,serif" font-size="14.00">is_open :Mongoid::Boolean</text>
<text text-anchor="start" x="754.5" y="-60.8" font-family="Times,serif" font-size="14.00">manager_duration_end :Date</text>
<text text-anchor="start" x="754.5" y="-45.8" font-family="Times,serif" font-size="14.00">manager_duration_start :Date</text>
<text text-anchor="start" x="754.5" y="-30.8" font-family="Times,serif" font-size="14.00">updated_at :Time</text>
</g>
<!-- AssessmentResult -->
<g id="node6" class="node"><title>AssessmentResult</title>
<path fill="none" stroke="black" d="M956,-30.5C956,-30.5 1064,-30.5 1064,-30.5 1070,-30.5 1076,-36.5 1076,-42.5 1076,-42.5 1076,-154.5 1076,-154.5 1076,-160.5 1070,-166.5 1064,-166.5 1064,-166.5 956,-166.5 956,-166.5 950,-166.5 944,-160.5 944,-154.5 944,-154.5 944,-42.5 944,-42.5 944,-36.5 950,-30.5 956,-30.5"/>
<text text-anchor="middle" x="1010" y="-151.3" font-family="Times,serif" font-size="14.00">AssessmentResult</text>
<polyline fill="none" stroke="black" points="944,-143.5 1076,-143.5 "/>
<text text-anchor="start" x="952" y="-128.3" font-family="Times,serif" font-size="14.00">_id :BSON::ObjectId</text>
<text text-anchor="start" x="952" y="-113.3" font-family="Times,serif" font-size="14.00">created_at :Time</text>
<text text-anchor="start" x="952" y="-98.3" font-family="Times,serif" font-size="14.00">current_level :Float</text>
<text text-anchor="start" x="952" y="-83.3" font-family="Times,serif" font-size="14.00">cycle_id :Object</text>
<text text-anchor="start" x="952" y="-68.3" font-family="Times,serif" font-size="14.00">total_points :Integer</text>
<text text-anchor="start" x="952" y="-53.3" font-family="Times,serif" font-size="14.00">updated_at :Time</text>
<text text-anchor="start" x="952" y="-38.3" font-family="Times,serif" font-size="14.00">user_id :Object</text>
</g>
<!-- Level -->
<g id="node7" class="node"><title>Level</title>
<path fill="none" stroke="black" d="M1106.5,-23C1106.5,-23 1245.5,-23 1245.5,-23 1251.5,-23 1257.5,-29 1257.5,-35 1257.5,-35 1257.5,-162 1257.5,-162 1257.5,-168 1251.5,-174 1245.5,-174 1245.5,-174 1106.5,-174 1106.5,-174 1100.5,-174 1094.5,-168 1094.5,-162 1094.5,-162 1094.5,-35 1094.5,-35 1094.5,-29 1100.5,-23 1106.5,-23"/>
<text text-anchor="middle" x="1176" y="-158.8" font-family="Times,serif" font-size="14.00">Level</text>
<polyline fill="none" stroke="black" points="1094.5,-151 1257.5,-151 "/>
<text text-anchor="start" x="1102.5" y="-135.8" font-family="Times,serif" font-size="14.00">_id :BSON::ObjectId</text>
<text text-anchor="start" x="1102.5" y="-120.8" font-family="Times,serif" font-size="14.00">created_at :Time</text>
<text text-anchor="start" x="1102.5" y="-105.8" font-family="Times,serif" font-size="14.00">description :String</text>
<text text-anchor="start" x="1102.5" y="-90.8" font-family="Times,serif" font-size="14.00">example_behaviour :Array</text>
<text text-anchor="start" x="1102.5" y="-75.8" font-family="Times,serif" font-size="14.00">example_task :Array</text>
<text text-anchor="start" x="1102.5" y="-60.8" font-family="Times,serif" font-size="14.00">seq_no :Integer</text>
<text text-anchor="start" x="1102.5" y="-45.8" font-family="Times,serif" font-size="14.00">track_id :Object</text>
<text text-anchor="start" x="1102.5" y="-30.8" font-family="Times,serif" font-size="14.00">updated_at :Time</text>
</g>
<!-- Role -->
<g id="node8" class="node"><title>Role</title>
<path fill="none" stroke="black" d="M1288,-53C1288,-53 1396,-53 1396,-53 1402,-53 1408,-59 1408,-65 1408,-65 1408,-132 1408,-132 1408,-138 1402,-144 1396,-144 1396,-144 1288,-144 1288,-144 1282,-144 1276,-138 1276,-132 1276,-132 1276,-65 1276,-65 1276,-59 1282,-53 1288,-53"/>
<text text-anchor="middle" x="1342" y="-128.8" font-family="Times,serif" font-size="14.00">Role</text>
<polyline fill="none" stroke="black" points="1276,-121 1408,-121 "/>
<text text-anchor="start" x="1284" y="-105.8" font-family="Times,serif" font-size="14.00">_id :BSON::ObjectId</text>
<text text-anchor="start" x="1284" y="-90.8" font-family="Times,serif" font-size="14.00">created_at :Time</text>
<text text-anchor="start" x="1284" y="-75.8" font-family="Times,serif" font-size="14.00">name :String</text>
<text text-anchor="start" x="1284" y="-60.8" font-family="Times,serif" font-size="14.00">updated_at :Time</text>
</g>
<!-- TrackCategory -->
<g id="node9" class="node"><title>TrackCategory</title>
<path fill="none" stroke="black" d="M1438,-38C1438,-38 1546,-38 1546,-38 1552,-38 1558,-44 1558,-50 1558,-50 1558,-147 1558,-147 1558,-153 1552,-159 1546,-159 1546,-159 1438,-159 1438,-159 1432,-159 1426,-153 1426,-147 1426,-147 1426,-50 1426,-50 1426,-44 1432,-38 1438,-38"/>
<text text-anchor="middle" x="1492" y="-143.8" font-family="Times,serif" font-size="14.00">TrackCategory</text>
<polyline fill="none" stroke="black" points="1426,-136 1558,-136 "/>
<text text-anchor="start" x="1434" y="-120.8" font-family="Times,serif" font-size="14.00">_id :BSON::ObjectId</text>
<text text-anchor="start" x="1434" y="-105.8" font-family="Times,serif" font-size="14.00">created_at :Time</text>
<text text-anchor="start" x="1434" y="-90.8" font-family="Times,serif" font-size="14.00">description :String</text>
<text text-anchor="start" x="1434" y="-75.8" font-family="Times,serif" font-size="14.00">name :String</text>
<text text-anchor="start" x="1434" y="-60.8" font-family="Times,serif" font-size="14.00">role_id :Object</text>
<text text-anchor="start" x="1434" y="-45.8" font-family="Times,serif" font-size="14.00">updated_at :Time</text>
</g>
<!-- User -->
<g id="node10" class="node"><title>User</title>
<path fill="none" stroke="black" d="M1588,-38C1588,-38 1696,-38 1696,-38 1702,-38 1708,-44 1708,-50 1708,-50 1708,-147 1708,-147 1708,-153 1702,-159 1696,-159 1696,-159 1588,-159 1588,-159 1582,-159 1576,-153 1576,-147 1576,-147 1576,-50 1576,-50 1576,-44 1582,-38 1588,-38"/>
<text text-anchor="middle" x="1642" y="-143.8" font-family="Times,serif" font-size="14.00">User</text>
<polyline fill="none" stroke="black" points="1576,-136 1708,-136 "/>
<text text-anchor="start" x="1584" y="-120.8" font-family="Times,serif" font-size="14.00">_id :BSON::ObjectId</text>
<text text-anchor="start" x="1584" y="-105.8" font-family="Times,serif" font-size="14.00">created_at :Time</text>
<text text-anchor="start" x="1584" y="-90.8" font-family="Times,serif" font-size="14.00">email :String</text>
<text text-anchor="start" x="1584" y="-75.8" font-family="Times,serif" font-size="14.00">password :String</text>
<text text-anchor="start" x="1584" y="-60.8" font-family="Times,serif" font-size="14.00">role :String</text>
<text text-anchor="start" x="1584" y="-45.8" font-family="Times,serif" font-size="14.00">updated_at :Time</text>
</g>
</g>
</svg>
